<svg xmlns="http://www.w3.org/2000/svg" viewBox="0 0 780 160" width="780" height="160" role="img" aria-label="tui-systemd"><g transform="translate(16 16) scale(0.25)"><rect x="32" y="32" width="448" height="448" rx="104" ry="104" fill="#1a1b26" stroke="#2f334d" stroke-width="8"/><polyline points="150,178 244,256 150,334" fill="none" stroke="#9ece6a" stroke-width="36" stroke-linecap="round" stroke-linejoin="round"/><rect x="339" y="166" width="26" height="34" rx="8" fill="#7aa2f7" transform="rotate(0 352 258)"/><rect x="339" y="166" width="26" height="34" rx="8" fill="#7aa2f7" transform="rotate(45 352 258)"/><rect x="339" y="166" width="26" height="34" rx="8" fill="#7aa2f7" transform="rotate(90 352 258)"/><rect x="339" y="166" width="26" height="34" rx="8" fill="#7aa2f7" transform="rotate(135 352 258)"/><rect x="339" y="166" width="26" height="34" rx="8" fill="#7aa2f7" transform="rotate(180 352 258)"/><rect x="339" y="166" width="26" height="34" rx="8" fill="#7aa2f7" transform="rotate(225 352 258)"/><rect x="339" y="166" width="26" height="34" rx="8" fill="#7aa2f7" transform="rotate(270 352 258)"/><rect x="339" y="166" width="26" height="34" rx="8" fill="#7aa2f7" transform="rotate(315 352 258)"/><circle cx="352" cy="258" r="52" fill="none" stroke="#7aa2f7" stroke-width="26"/></g><text x="184" y="107" font-family="JetBrains Mono, DejaVu Sans Mono, Menlo, monospace" font-size="82" font-weight="700" letter-spacing="-1"><tspan fill="#9ece6a">tui-</tspan><tspan fill="#c0caf5">systemd</tspan></text></svg>
